<?xml version="1.0" encoding="UTF-8" standalone="no"?>
<!-- Created with Inkscape (http://www.inkscape.org/) -->

<svg
   width="66mm"
   height="84mm"
   viewBox="0 0 66 84"
   version="1.1"
   id="svg1"
   sodipodi:docname="elf-craftsman-dark.svg"
   inkscape:version="1.4.3 (0d15f75, 2025-12-25)"
   xml:space="preserve"
   xmlns:inkscape="http://www.inkscape.org/namespaces/inkscape"
   xmlns:sodipodi="http://sodipodi.sourceforge.net/DTD/sodipodi-0.dtd"
   xmlns="http://www.w3.org/2000/svg"
   xmlns:svg="http://www.w3.org/2000/svg"><sodipodi:namedview
     id="namedview1"
     pagecolor="#ffffff"
     bordercolor="#000000"
     borderopacity="0.25"
     inkscape:showpageshadow="2"
     inkscape:pageopacity="0.0"
     inkscape:pagecheckerboard="0"
     inkscape:deskcolor="#d1d1d1"
     inkscape:document-units="mm"
     inkscape:zoom="1.5768098"
     inkscape:cx="65.955957"
     inkscape:cy="121.44775"
     inkscape:window-width="1920"
     inkscape:window-height="1129"
     inkscape:window-x="-8"
     inkscape:window-y="-8"
     inkscape:window-maximized="1"
     inkscape:current-layer="layer1" /><defs
     id="defs1" /><g
     inkscape:label="Layer 1"
     inkscape:groupmode="layer"
     id="layer1"><path
       style="opacity:1;mix-blend-mode:normal;fill:#1a1a1a;fill-opacity:1;stroke:#80e5ff;stroke-width:1.642;stroke-linecap:square;paint-order:markers stroke fill;stroke-opacity:1"
       d="m 36.722211,77.804813 c 0,0 -0.682239,2.461991 0.266962,3.411191 0.949203,0.949201 5.220607,0.266965 5.220607,0.266965 l 0.08899,-1.038191 -1.542452,-1.779751 c 0,0 0.385611,-1.216163 -0.652577,-1.334813 0,0 0.800887,-0.504262 -0.02966,-0.860213 0,0 0.830547,-0.682238 0.02966,-0.949201 0,0 0.652575,-0.741563 -0.177976,-0.978863 0,0 0.720333,-1.779752 1.076283,-2.847603 0,0 -0.728996,0.09598 -0.605599,-0.282475 0.362306,-2.989566 1.001167,-6.059356 0.0929,-9.62481 0,0 0.59325,-1.542451 -0.266963,-1.572114 0,0 1.186501,-2.373002 -0.148313,-2.995915 0,0 3.351866,-20.05187 -1.008526,-23.166436 0,0 -2.906928,-9.788635 -0.563588,-11.835349 l 2.955202,7.914294 c 1.430884,3.08822 3.060824,6.05391 3.303592,9.467948 0,0 -1.98739,0.830551 -0.385613,2.847603 0,0 -0.2373,0.741564 0.05933,0.830551 0.296625,0.08899 1.334814,1.394139 2.58064,-0.35595 1.245826,-1.750089 0.563588,-4.894318 0.563588,-4.894318 l 0.711901,0.02966 -2.14522,-6.208987 -0.415276,0.652576 c 0,0 -4.083911,-6.516239 -3.460998,-9.304517 0,0 -0.34819,-0.220197 1.097508,-0.29662 -0.571353,-1.440899 -0.949201,-2.017054 -0.652575,-2.728955 -0.462484,-1.151148 -1.842463,-6.315243 -6.466431,-3.826466 0,0 -0.05933,-0.533926 -0.711901,-0.682238 0,0 -0.415275,-0.682239 0,-1.067851 0,0 0.266963,-0.889876 -1.186501,-0.533926 0,0 -0.207637,-0.711901 0.326288,-0.978863 0,0 0.978864,-0.563589 0.949201,-1.75009 0,0 1.502576,-1.8291859 2.892895,-3.4798211 -2.353643,0.8977758 -2.180994,0.9881689 -2.180994,0.9881689 0,0 1.275489,-2.3730023 -1.542452,-5.0722925 L 34.58651,4.2417417 c 0,0 -2.402665,-2.4026649 -4.92398,0.1483127 l 1.334813,-0.3856129 c 0,0 -2.07067,0.7790405 -2.129995,3.5079932 0,0 -0.399012,-0.08056 -2.072522,-0.2753949 0.620308,0.5850561 1.407128,0.9508706 1.524974,1.2670469 0.195117,0.5234894 -0.582617,1.1416257 -0.361812,2.3515263 0,0 0.823971,-2.0329377 0.933316,-1.9271916 0,0 -0.02904,3.2940316 -1.126559,3.1457186 0,0 1.452847,0.176482 2.224072,-2.2855052 0,0 0.444938,1.6017762 -0.444938,2.3730022 0,0 -1.394138,2.046715 -2.550977,2.34334 -1.156839,0.296625 -2.046715,1.868739 -2.046715,1.868739 0,0 2.10604,-1.453464 2.34334,-1.216163 0.2373,0.2373 -1.038188,0.652575 -1.038188,0.652575 0.764353,0.225784 1.663459,-0.121794 2.195027,-0.830551 0,0 -0.395662,0.794732 -1.094938,1.082846 -0.55806,0.229931 -3.11282,-0.799971 -4.67453,1.00371 0,0 -0.652555,1.346875 -0.577214,3.03162 0.914319,0.510168 0.865413,4.182904 0.109995,5.54594 l 0.87759,0.378416 c 0,0 -0.563588,4.814847 -1.156838,5.645398 l -0.534799,-0.588704 -1.126847,6.701505 0.897947,-0.07935 c 0,0 -0.68224,1.013284 -1.038188,3.949875 0,0 -1.661102,2.753857 1.334814,4.08867 0,0 2.313328,-1.435177 1.268655,-2.216108 0.192827,-0.613135 0.268621,-1.123079 0.189898,-1.681683 -0.05441,-0.3861 -0.583132,-0.32346 -0.447382,-1.080812 1.411936,-7.877221 2.049702,-8.52053 2.049702,-8.52053 1.763106,-5.316735 1.832244,-10.239416 2.484817,-10.002115 0,0 0.581323,2.974173 1.382213,4.160674 0.800889,1.186501 -0.241516,5.250991 -0.241516,5.250991 0,0 -0.711901,0.474601 -0.237301,1.423801 0,0 -1.423801,0.326288 -0.59325,1.51279 0,0 -1.720427,1.156838 -0.860214,1.809414 0,0 -1.453464,0.711901 -0.860213,1.987389 -0.864384,4.091848 -0.646789,6.390289 -0.07125,11.459042 0,0 -2.539053,2.660322 -5.416318,3.490873 -2.877265,0.830551 -3.203553,3.915454 -3.203553,3.915454 0,0 2.764421,-2.415248 3.292541,-1.690764 -0.06513,0.754146 -1.186501,1.542451 -1.186501,1.542451 l 2.669627,-1.097513 c 1.544132,0.245419 -5.493314,2.06617 -5.635885,5.250268 0,0 2.550982,-2.550978 3.47052,-2.017052 l -0.415275,0.800888 1.542452,-0.949201 c 0,0 -0.652576,2.22469 -0.326288,3.203553 0,0 -0.148312,-0.800888 2.195027,-3.826466 2.47407,-3.194371 2.906928,-3.381529 2.906928,-3.381529 l 0.35595,1.75009 c 0,0 -1.008526,0.682238 -0.266963,1.305151 0,0 -1.275488,0.711901 -0.207637,1.898402 0,0 -1.216164,1.156839 -0.533926,2.10604 0,0 -1.572114,8.127533 -0.7119,8.958083 l -0.711901,0.05933 c 0,0 1.305151,1.75009 0.207637,2.373003 0,0 -0.978863,0.622908 0.148313,1.334809 0,0 -0.919538,1.750089 -0.266963,1.928064 0,0 -1.839076,2.639965 -2.521315,2.936591 -0.682238,0.296625 -2.402665,0.504263 -1.572114,1.690764 0.830551,1.186501 8.127533,-0.02966 8.127533,-0.02966 0,0 1.186502,-2.313677 0.02966,-3.440853 0,0 0.771229,-0.830554 0.08899,-1.48313 0,0 0.622914,-0.326288 0.05933,-1.008526 0,0 0.563584,-0.652575 -0.148317,-1.216163 0,0 0.711901,-0.177976 0,-1.216164 0,0 0.326288,-3.084903 1.512789,-4.360392 0.534709,-1.725922 1.019511,-6.869075 0.978863,-6.970694 0,0 1.008526,0.326287 0.652576,-1.216164 0,0 1.186501,-0.919539 -0.05933,-1.957727 0,0 -0.385608,-1.158947 0.131815,-2.455154 l 0.402121,-1.905238 c 0,0 1.542451,-2.34334 1.364476,-3.351866 0,0 0.860208,0.11865 1.008521,1.779752 0.148313,1.661102 1.127176,2.10604 1.127176,2.10604 0,0 0.2373,0.860213 -0.11865,1.275488 0,0 -0.682238,1.245827 0.266963,2.788278 0,0 -0.711901,1.245826 0.2373,2.402665 0,0 -0.296625,2.284015 0.35595,3.025578 1.332733,1.495343 -0.02848,5.230475 0.830548,6.258794 L 36.03997,72.46556 c 0,0 0.08899,0.919538 0.830551,0.741563 0,0 -0.919538,0.949201 -0.563588,1.512789 0,0 -0.682238,0.800888 0.05933,1.156839 0,0 -0.593255,0.978863 0.05932,1.008526 0,0 -1.008527,1.156834 0.296625,0.919536 z"
       id="path1"
       sodipodi:nodetypes="csccccccccsccccccccsscccccccccccccccccccccscccccscsccscccccccccccssscsccccccscccccccccsccccccccccsscccccccccccccsccccccccccccc" /><path
       id="path3"
       style="opacity:1;fill:#80e5ff;fill-opacity:1;stroke:#80e5ff;stroke-width:0.8;stroke-linecap:square;stroke-opacity:1;paint-order:markers stroke fill;stroke-dasharray:none"
       d="M 34.853687 14.012065 C 34.682663 14.012065 34.505053 14.052604 34.349325 14.149007 C 33.726412 14.53462 30.433499 14.801681 29.513961 14.653369 C 28.594425 14.505056 28.505754 14.949992 28.505754 14.949992 C 28.446429 15.483917 27.259835 16.136483 27.259835 16.136483 C 23.641006 15.691545 23.285303 16.344216 22.632727 17.085779 C 21.980151 17.827342 22.128365 20.140889 22.128365 20.140889 C 23.641154 22.95883 22.128365 25.657865 22.128365 25.657865 C 22.751278 26.696053 26.013916 26.518278 26.013916 26.518278 C 26.251217 23.166413 27.02264 22.217249 27.02264 22.217249 C 26.66669 22.958812 28.565181 26.785445 28.565181 26.785445 C 31.828059 28.535534 37.552747 26.221655 37.552747 26.221655 C 37.404435 23.10709 38.531498 22.217249 38.531498 22.217249 L 39.095288 23.403739 C 39.510563 24.174965 42.209827 23.077661 42.209827 23.077661 L 43.33689 22.810494 C 42.387689 21.090068 42.714189 20.052006 42.714189 20.052006 C 40.815787 13.318612 36.306828 16.373678 36.306828 16.373678 C 36.573791 16.017728 35.505843 15.632121 35.505843 15.632121 C 35.505843 15.632121 34.883035 15.157735 35.41696 14.712797 C 35.817404 14.379094 35.366756 14.012065 34.853687 14.012065 z M 38.264848 31.531409 C 37.256322 33.251836 28.268559 31.709176 28.268559 31.709176 C 27.497333 31.768496 27.941964 33.132861 27.941964 33.132861 C 26.280862 33.548136 27.348718 34.675403 27.348718 34.675403 C 25.657954 35.476291 26.45885 36.544023 26.45885 36.544023 C 24.679098 37.433899 25.806177 38.413159 25.806177 38.413159 C 25.806177 38.413159 26.596636 39.203098 27.73009 38.996586 C 25.860976 40.235111 27.082068 47.816203 27.082068 47.816203 C 27.082068 47.816203 25.183616 51.345689 20.941874 52.977128 C 16.700132 54.608567 16.602087 57.159819 16.602087 57.159819 C 16.602087 57.159819 20.081355 54.905273 20.170345 55.557849 C 20.259335 56.210425 19.191593 56.981535 19.191593 56.981535 C 23.700297 55.023808 21.208525 56.655457 21.208525 56.655457 C 15.869269 59.028459 16.077055 61.223653 16.077055 61.223653 C 18.094107 58.939638 19.518188 59.265633 19.518188 59.265633 L 19.162138 60.066618 L 20.615279 59.087866 C 19.903378 60.808293 20.408057 62.320744 20.408057 62.320744 C 24.471824 54.994098 28.49409 53.585978 29.870011 51.998376 C 32.5693 48.883811 32.569588 46.303117 32.569588 46.303117 C 32.585308 41.759145 33.621835 39.94166 33.827393 39.54384 C 36.185496 40.220058 38.72732 39.950739 41.171647 39.747961 C 40.964009 35.357906 39.006405 34.052702 39.006405 34.052702 L 38.264848 31.531409 z " /></g></svg>
