<?xml version="1.0" encoding="UTF-8" standalone="no"?>
<!-- Created with Inkscape (http://www.inkscape.org/) -->

<svg
   width="66mm"
   height="84mm"
   viewBox="0 0 66 84"
   version="1.1"
   id="svg1"
   sodipodi:docname="human-craftsman.svg"
   inkscape:version="1.4.3 (0d15f75, 2025-12-25)"
   xml:space="preserve"
   xmlns:inkscape="http://www.inkscape.org/namespaces/inkscape"
   xmlns:sodipodi="http://sodipodi.sourceforge.net/DTD/sodipodi-0.dtd"
   xmlns="http://www.w3.org/2000/svg"
   xmlns:svg="http://www.w3.org/2000/svg"><sodipodi:namedview
     id="namedview1"
     pagecolor="#ffffff"
     bordercolor="#000000"
     borderopacity="0.25"
     inkscape:showpageshadow="2"
     inkscape:pageopacity="0.0"
     inkscape:pagecheckerboard="0"
     inkscape:deskcolor="#d1d1d1"
     inkscape:document-units="mm"
     inkscape:zoom="3.1536196"
     inkscape:cx="78.322699"
     inkscape:cy="120.9721"
     inkscape:window-width="1920"
     inkscape:window-height="1129"
     inkscape:window-x="-8"
     inkscape:window-y="-8"
     inkscape:window-maximized="1"
     inkscape:current-layer="layer1" /><defs
     id="defs1" /><g
     inkscape:label="Layer 1"
     inkscape:groupmode="layer"
     id="layer1"><path
       style="opacity:1;fill:#d1d1d1;fill-opacity:1;stroke:#80e5ff;stroke-width:0.799999;stroke-linecap:square;stroke-opacity:1;paint-order:markers stroke fill"
       d="m 23.617372,75.571397 c 0,0 -2.20233,2.055508 -2.370127,2.726692 -0.167797,0.671187 -0.167797,1.447247 -0.167797,1.447247 h -0.209745 l -0.04195,0.922883 c 0,0 2.894492,2.202328 5.033899,-0.293645 0,0 0.293644,-1.237499 0.104873,-1.636016 0,0 0.838983,0.356567 1.216525,-0.419492 l 0.356568,-4.509534 c 0,0 0.545339,-0.419491 0.04195,-1.740889 0,0 -0.27267,-0.482416 0.524364,-1.384322 l 0.251695,-4.740255 c 0,0 1.279449,-3.397881 1.174576,-4.991949 0,0 3.313983,1.845763 3.880296,4.131992 l 0.356568,-16.297246 0.922881,-2.579872 c 0,0 3.397882,16.527965 0,20.72288 0,0 1.342373,0.356568 3.125212,-2.265254 0,0 0.587288,5.264619 1.845763,6.606992 l 0.02097,0.818008 c 0,0 -0.587288,1.027754 -0.04195,1.803814 l 0.02098,4.17394 c 0,0 0.251695,0.943856 1.405296,0.629238 l 0.188772,1.69894 c 0,0 2.139406,2.999364 5.054872,0.377543 l 0.04195,-0.734111 -0.251695,-0.02097 c 0,0 1.027754,-2.118432 -2.642797,-4.467585 L 42.473516,71.6911 v -0.692161 c 0,0 0.545339,0.587288 0.566314,-3.817373 0,0 0.73411,-5.579237 -0.964831,-7.739618 0,0 2.97839,-3.313983 2.70572,-7.634746 0,0 -1.19555,-9.144915 -3.230084,-12.479872 0,0 0.46144,-6.732839 -1.384322,-7.110382 l 0.04195,-5.91483 0.838983,-0.838983 c 0,0 0.880932,5.998729 2.747669,8.599576 l 0.150601,7.842281 c 0.01065,0.554384 -0.45338,0.790746 -0.318398,1.365558 0.09007,0.38358 -2.202331,2.349152 0.545339,1.048729 0,0 2.999364,-1.195551 2.160381,-5.474365 l 0.608263,-0.335593 c 0,0 -0.73411,-3.104237 0.02097,-6.334322 0.755085,-3.230084 0.524365,-8.284957 0.524365,-8.284957 l -1.2375,2.20233 -0.27267,-3.041313 c 0,0 -1.174576,0.985805 -1.174576,-1.426271 l 1.887716,0.02097 c 0,0 0,-1.656991 -0.901907,-2.810593 0,0 3.062288,-0.629233 3.985169,-1.552115 0,0 -4.866101,-1.216525 -6.523093,-2.391101 0,0 1.132627,-0.692161 -4.824152,-2.936441 0,0 -0.880932,1.573093 -2.370127,-0.755085 0,0 -0.293644,-0.46144 -0.06292,-1.006779 0,0 0.503386,-0.4404662 0.377538,-1.7199154 0,0 0.797034,-0.5453389 0.818009,-1.9506355 0,0 -0.23072,-0.5033898 -0.545339,-0.020975 0.647884,-1.4418023 0.241625,-4.0087899 -0.435376,-4.1574 0,0 0.138969,0.2385351 0.145549,0.3546406 0,0 -0.881113,-1.4343043 -1.564805,-1.3012595 0,0 0.149112,0.095967 0.134717,0.3637652 0,0 -0.35486,-0.552318 -1.214817,-0.5313435 0,0 0.350169,0.2648173 0.564605,0.405496 0,0 -0.375977,-0.5487193 -1.068138,-0.2341007 0,0 0.134641,0.088987 0.209453,0.2179971 0,0 0.02499,-0.1423689 -0.898433,-0.031789 0,0 0.153068,0.082972 0.29938,0.1842278 0,0 -0.308294,0.0074 -0.831101,0.189083 0,0 0.229885,-0.00742 0.311456,0.055617 0,0 -0.629206,0.1527861 -0.758329,0.3133061 l 0.264658,0.018049 C 31.48939,2.5323777 31.310356,2.802643 31.113857,3.1075231 l 0.264169,-0.031358 c 0.08523,-0.010118 -0.492377,0.6406156 -0.52752,0.6961666 0,0 0.422831,-0.1652043 0.399694,-0.127719 -0.132862,0.2152531 -0.176964,0.6044754 -0.278494,0.6085695 l 0.01757,1.183151 c 0,0 0.105057,0.7206558 -0.05867,0.8076378 0,0 -0.800889,-0.4078598 -0.659992,0.2595471 0,0 -0.103818,2.1727803 0.875045,1.8094143 0,0 -0.05933,0.7786409 0.978864,2.1282856 -0.638131,1.871005 -2.395643,2.705439 -2.728953,1.63144 0,0 -5.072293,0.59325 -4.657017,2.639965 0,0 -3.584077,1.670045 -6.110481,2.34334 0,0 1.114378,1.243717 3.41119,1.483126 0,0 -1.334813,2.22469 -1.334813,3.025578 l 2.106039,-0.02966 c 0,0 -0.59325,1.690765 -0.4746,2.34334 l -0.800889,-0.652578 -0.11865,3.885791 -1.809414,-3.351866 c 0,0 0.296625,15.454178 1.423801,15.365191 0,0 -1.038188,2.343339 0.593251,3.589166 0,0 1.839077,1.423801 2.373002,-0.563588 0,0 2.076378,-0.919539 -0.02966,-2.491653 0,0 -0.889878,-0.385613 0.355948,-1.423801 0,0 0.444938,-0.622913 -0.652575,-1.394139 0,0 -0.800889,-2.610303 0.682238,-3.826467 0,0 2.017052,-5.072292 2.106039,-8.424158 0,0 1.186502,-1.572114 0.593251,7.771583 0,0 -1.275489,0.207637 -0.415275,2.165364 0,0 -2.699291,19.725583 -1.63144,21.742635 0,0 0.593251,0.978863 0.118651,2.165364 0,0 -1.097514,1.542452 -0.355951,3.262879 h -1.216164 l 0.711901,6.911369 c 0,0 -0.148312,2.432327 0.533926,2.610303 0,0 -1.008526,1.097513 -0.385613,1.868739 z"
       id="path1"
       sodipodi:nodetypes="csccccccccccccccccccccccccccccccccccccsscccscccccccccccccccccccccccccccccscssccccccccccccccccccccccccccccccccc" /><path
       id="path2"
       style="opacity:1;fill:#80e5ff;fill-opacity:1;stroke:#80e5ff;stroke-width:0.799999;stroke-linecap:square;paint-order:markers stroke fill;stroke-opacity:1"
       d="M 38.467419 11.955343 C 33.454495 15.269326 29.343429 12.060246 29.343429 12.060246 C 24.288556 12.752407 24.645007 14.702979 24.645007 14.702979 C 24.183567 15.248318 18.667594 17.094047 18.667594 17.094047 C 18.667594 17.094047 19.842198 18.205911 21.981604 18.541504 C 21.981604 18.541504 20.680816 20.471313 20.722766 21.561991 L 22.820312 21.520133 C 22.820312 21.520133 25.747168 21.386931 25.687838 19.073254 L 27.319263 16.937467 C 27.319263 16.937467 29.306416 17.886269 30.75988 15.364954 C 30.75988 15.364954 34.230653 13.615069 36.722306 15.335498 C 36.722306 15.335498 38.234857 17.827243 40.459546 16.581417 L 42.743644 19.221566 C 42.239382 21.297943 44.780729 21.603849 44.780729 21.603849 L 46.752185 21.603849 C 47.108752 20.618044 45.829244 18.856213 45.829244 18.856213 C 48.954456 18.206001 49.751485 17.261995 49.751485 17.261995 C 45.892163 16.485936 43.228369 14.912785 43.228369 14.912785 C 44.004428 13.96893 38.467419 11.955343 38.467419 11.955343 z M 40.127783 32.266764 C 40.075063 32.265258 40.044584 32.272965 40.044584 32.272965 C 36.900356 35.061243 26.874329 32.391305 26.874329 32.391305 C 25.806476 33.340506 26.637134 34.467664 26.637134 34.467664 L 24.738542 51.079053 C 24.738542 51.079053 22.899338 56.714655 27.645341 59.265633 C 32.391347 61.81661 33.340601 64.783126 33.340601 64.783126 L 33.933846 43.070239 C 37.018749 59.088005 34.823714 66.918913 34.823714 66.918913 C 39.332418 66.918913 43.010799 58.375692 44.493925 54.756864 C 45.977052 51.138035 41.586609 39.213627 41.586609 39.213627 C 41.949975 32.724949 40.496827 32.277309 40.127783 32.266764 z " /></g></svg>
